<svg xmlns="http://www.w3.org/2000/svg" width="20" height="20" viewBox="0 0 20 20">
  <path fill="#0F62FE" fill-rule="evenodd" d="M16.0625,5.8125 L11.6875,1.4375 C11.5760899,1.31404716 11.4162314,1.2455364 11.25,1.25 L5,1.25 C4.30964406,1.25 3.75,1.80964406 3.75,2.5 L3.75,17.5 C3.75,18.1903559 4.30964406,18.75 5,18.75 L15,18.75 C15.6903559,18.75 16.25,18.1903559 16.25,17.5 L16.25,6.25 C16.2544636,6.08376855 16.1859528,5.92391012 16.0625,5.8125 L16.0625,5.8125 Z M11.25,2.75 L14.75,6.25 L11.25,6.25 L11.25,2.75 Z M15,17.5 L5,17.5 L5,2.5 L10,2.5 L10,6.25 C10,6.94035594 10.5596441,7.5 11.25,7.5 L15,7.5 L15,17.5 Z M8.75,13.8625 L7.13125,12.24375 L6.25,13.125 L8.75,15.625 L13.75,10.625 L12.86875,9.74375 L8.75,13.8625 Z"/>
</svg>
