<svg xmlns="http://www.w3.org/2000/svg" width="125" height="125" viewBox="0 0 125 125">
  <g fill="none" fill-rule="evenodd">
    <rect width="125" height="125"/>
    <path fill="#6F6F6F" d="M63.7,89.1 C52.2,89.1 42.9,79.8 42.9,68.3 C42.9,56.8 52.2,47.5 63.7,47.5 C75.2,47.5 84.5,56.8 84.5,68.3 C84.5,79.8 75.1,89.1 63.7,89.1 Z M63.7,50.5 C53.9,50.5 45.9,58.5 45.9,68.3 C45.9,78.1 53.9,86.1 63.7,86.1 C73.5,86.1 81.5,78.1 81.5,68.3 C81.5,58.5 73.5,50.5 63.7,50.5 Z"/>
    <path fill="#6F6F6F" d="M62.7,0.8 C28.5,0.8 0.7,28.6 0.7,62.8 C0.7,97 28.5,124.8 62.7,124.8 C96.9,124.8 124.7,97 124.7,62.8 C124.7,28.6 96.9,0.8 62.7,0.8 Z M47.1,119.7 L47.1,104.7 C47.1,99.2 51.6,94.8 57,94.8 L70.3,94.8 C75.8,94.8 80.2,99.3 80.2,104.7 L80.2,119.1 C74.6,120.8 68.7,121.8 62.6,121.8 C57.3,121.8 52,121 47.1,119.7 Z M83.3,118.1 L83.3,104.7 C83.3,97.6 77.5,91.8 70.4,91.8 L57,91.8 C49.9,91.8 44.1,97.6 44.1,104.7 L44.1,118.8 C20.7,111 3.7,88.9 3.7,62.8 C3.7,30.3 30.2,3.8 62.7,3.8 C95.2,3.8 121.7,30.3 121.7,62.8 C121.7,88.1 105.7,109.7 83.3,118.1 Z"/>
  </g>
</svg>
