<svg xmlns="http://www.w3.org/2000/svg" width="20" height="20" viewBox="0 0 20 20">
  <defs>
    <filter id="calendar---day-20-enabled-a">
      <feColorMatrix in="SourceGraphic" values="0 0 0 0 0.086275 0 0 0 0 0.086275 0 0 0 0 0.086275 0 0 0 1.000000 0"/>
    </filter>
  </defs>
  <g fill="none" fill-rule="evenodd" filter="url(#calendar---day-20-enabled-a)">
    <path fill="#000" fill-rule="nonzero" d="M16.25,2.5 L13.75,2.5 L13.75,1.25 L12.5,1.25 L12.5,2.5 L7.5,2.5 L7.5,1.25 L6.25,1.25 L6.25,2.5 L3.75,2.5 C3.0625,2.5 2.5,3.0625 2.5,3.75 L2.5,16.25 C2.5,16.9375 3.0625,17.5 3.75,17.5 L16.25,17.5 C16.9375,17.5 17.5,16.9375 17.5,16.25 L17.5,3.75 C17.5,3.0625 16.9375,2.5 16.25,2.5 Z M16.25,16.25 L3.75,16.25 L3.75,7.5 L16.25,7.5 L16.25,16.25 Z M16.25,6.25 L3.75,6.25 L3.75,3.75 L6.25,3.75 L6.25,5 L7.5,5 L7.5,3.75 L12.5,3.75 L12.5,5 L13.75,5 L13.75,3.75 L16.25,3.75 L16.25,6.25 Z"/>
    <rect width="20" height="20"/>
    <polygon fill="#000" fill-rule="nonzero" points="7.5 10 6.25 10 6.25 11.25 7.5 11.25"/>
  </g>
</svg>
