<svg xmlns="http://www.w3.org/2000/svg" width="20" height="20" viewBox="0 0 20 20">
  <path fill="#161616" fill-rule="evenodd" d="M16.25,2.51875 L13.75,2.51875 L13.75,1.26875 L12.5,1.26875 L12.5,2.51875 L7.5,2.51875 L7.5,1.26875 L6.25,1.26875 L6.25,2.51875 L3.75,2.51875 C3.05964406,2.51875 2.5,3.07839406 2.5,3.76875 L2.5,16.26875 C2.5,16.9591059 3.05964406,17.51875 3.75,17.51875 L16.25,17.51875 C16.9403559,17.51875 17.5,16.9591059 17.5,16.26875 L17.5,3.76875 C17.5,3.07839406 16.9403559,2.51875 16.25,2.51875 Z M16.25,16.26875 L3.75,16.26875 L3.75,7.51875 L16.25,7.51875 L16.25,16.26875 Z M16.25,6.26875 L3.75,6.26875 L3.75,3.76875 L6.25,3.76875 L6.25,5.01875 L7.5,5.01875 L7.5,3.76875 L12.5,3.76875 L12.5,5.01875 L13.75,5.01875 L13.75,3.76875 L16.25,3.76875 L16.25,6.26875 Z"/>
</svg>
