<svg xmlns="http://www.w3.org/2000/svg" width="20" height="20" viewBox="0 0 20 20">
  <g fill="none" fill-rule="evenodd">
    <rect width="20" height="20"/>
    <path fill="#0F62FE" d="M17.5,6.25 L13.75,6.25 L13.75,3.75 C13.75,3.0625 13.1875,2.5 12.5,2.5 L7.5,2.5 C6.8125,2.5 6.25,3.0625 6.25,3.75 L6.25,6.25 L2.5,6.25 C1.8125,6.25 1.25,6.8125 1.25,7.5 L1.25,16.25 C1.25,16.9375 1.8125,17.5 2.5,17.5 L17.5,17.5 C18.1875,17.5 18.75,16.9375 18.75,16.25 L18.75,7.5 C18.75,6.8125 18.1875,6.25 17.5,6.25 Z M7.5,3.75 L12.5,3.75 L12.5,6.25 L7.5,6.25 L7.5,3.75 Z"/>
    <rect width="20" height="20"/>
    <rect width="20" height="20"/>
    <path fill="#FFF" fill-rule="nonzero" d="M13.4375,10 L12.0625,8.625 C11.875,8.4375 11.5625,8.4375 11.375,8.625 L7.0625,12.9375 L7.0625,15 L9.125,15 L13.4375,10.6875 C13.625,10.5 13.625,10.1875 13.4375,10 Z M8.6875,14.0625 L7.9375,14.0625 L7.9375,13.3125 L10.25,11 L11,11.75 L8.6875,14.0625 Z M11.6875,11.0625 L10.9375,10.3125 L11.6875,9.5625 L12.4375,10.3125 L11.6875,11.0625 Z"/>
    <rect width="20" height="20"/>
  </g>
</svg>
