<svg xmlns="http://www.w3.org/2000/svg" width="20" height="20" viewBox="0 0 20 20">
  <g fill="none" fill-rule="evenodd">
    <rect width="20" height="20"/>
    <path fill="#0F62FE" d="M14.8125,5.8125 L10.4375,1.4375 C10.3125,1.3125 10.1875,1.25 10,1.25 L3.75,1.25 C3.0625,1.25 2.5,1.8125 2.5,2.5 L2.5,17.5 C2.5,18.1875 3.0625,18.75 3.75,18.75 L12.5,18.75 L12.5,17.5 L3.75,17.5 L3.75,2.5 L8.75,2.5 L8.75,6.25 C8.75,6.9375 9.3125,7.5 10,7.5 L13.75,7.5 L13.75,8.75 L15,8.75 L15,6.25 C15,6.0625 14.9375,5.9375 14.8125,5.8125 Z M10,2.75 L13.5,6.25 L10,6.25 L10,2.75 Z"/>
    <rect width="20" height="20"/>
    <path fill="#0F62FE" d="M7.125,12.5 C7.125,14.5625 8.8125,16.25 10.875,16.25 C11.6875,16.25 12.4375,16 13.0625,15.5625 L16.25,18.75 L17.125,17.875 L13.9375,14.6875 C14.375,14.0625 14.625,13.3125 14.625,12.5 C14.625,10.4375 12.9375,8.75 10.875,8.75 C8.8125,8.75 7.125,10.4375 7.125,12.5 Z M8.375,12.5 C8.375,11.125 9.5,10 10.875,10 C12.25,10 13.375,11.125 13.375,12.5 C13.375,13.875 12.25,15 10.875,15 C9.5,15 8.375,13.875 8.375,12.5 Z"/>
  </g>
</svg>
