<svg xmlns="http://www.w3.org/2000/svg" width="20" height="20" viewBox="0 0 20 20">
  <path fill="#161616" fill-rule="evenodd" d="M10,1.25 C5.16750844,1.25 1.25,5.16750844 1.25,10 C1.25,14.8324916 5.16750844,18.75 10,18.75 C14.8324916,18.75 18.75,14.8324916 18.75,10 C18.75,7.67935571 17.8281276,5.45375898 16.1871843,3.81281566 C14.546241,2.17187235 12.3206443,1.25 10,1.25 Z M10,17.5 C5.85786438,17.5 2.5,14.1421356 2.5,10 C2.5,5.85786438 5.85786438,2.5 10,2.5 C14.1421356,2.5 17.5,5.85786438 17.5,10 C17.5,14.1421356 14.1421356,17.5 10,17.5 L10,17.5 Z M10,15.625 C10.517767,15.625 10.9375,15.205267 10.9375,14.6875 C10.9375,14.169733 10.517767,13.75 10,13.75 C9.48223305,13.75 9.0625,14.169733 9.0625,14.6875 C9.0625,15.205267 9.48223305,15.625 10,15.625 Z M10.625,4.99999301 L9.6875,4.99999301 C8.94106966,4.99833571 8.22473189,5.29411735 7.69692462,5.82192462 C7.16911735,6.34973189 6.87333571,7.06606966 6.87499301,7.8125 L6.87499301,8.125 L8.125,8.125 L8.125,7.8125 C8.125,6.94955508 8.82455508,6.25 9.6875,6.25 L10.625,6.25 C11.4879449,6.25 12.1875,6.94955508 12.1875,7.8125 C12.1875,8.67544492 11.4879449,9.375 10.625,9.375 L9.37499301,9.375 L9.37499301,12.1875 L10.625,12.1875 L10.625,10.625 C12.1783009,10.625 13.4375,9.36580086 13.4375,7.8125 C13.4375,6.25919914 12.1783009,4.99999301 10.625,4.99999301 Z"/>
</svg>
