<svg xmlns="http://www.w3.org/2000/svg" width="20" height="20" viewBox="0 0 20 20">
  <path fill="#0043CE" fill-rule="evenodd" d="M10,1.25 C5.16750844,1.25 1.25,5.16750844 1.25,10 C1.25,14.8324916 5.16750844,18.75 10,18.75 C14.8324916,18.75 18.75,14.8324916 18.75,10 C18.75,7.67935571 17.8281276,5.45375898 16.1871843,3.81281566 C14.546241,2.17187235 12.3206443,1.25 10,1.25 Z M10,4.375 C10.517767,4.375 10.9375,4.79473305 10.9375,5.3125 C10.9375,5.83026695 10.517767,6.25 10,6.25 C9.48223305,6.25 9.0625,5.83026695 9.0625,5.3125 C9.0625,4.79473305 9.48223305,4.375 10,4.375 L10,4.375 Z M12.5,15.075 L7.5,15.075 L7.5,13.675 L9.3,13.675 L9.3,9.45 L8.125,9.45 L8.125,8.05 L10.70625,8.05 L10.70625,13.675 L12.5,13.675 L12.5,15.075 Z"/>
</svg>
