<svg xmlns="http://www.w3.org/2000/svg" width="20" height="20" viewBox="0 0 20 20">
  <path fill="#161616" fill-rule="evenodd" d="M5,5.625 C3.61928813,5.625 2.5,4.50571187 2.5,3.125 C2.5,1.74428813 3.61928813,0.625 5,0.625 C6.38071187,0.625 7.5,1.74428813 7.5,3.125 C7.5,3.78804122 7.2366079,4.42392601 6.76776695,4.89276695 C6.29892601,5.3616079 5.66304122,5.625 5,5.625 Z M5,1.875 C4.30964406,1.875 3.75,2.43464406 3.75,3.125 C3.75,3.81535594 4.30964406,4.375 5,4.375 C5.69035594,4.375 6.25,3.81535594 6.25,3.125 C6.25,2.43464406 5.69035594,1.875 5,1.875 L5,1.875 Z M15,5.625 C13.6192881,5.625 12.5,4.50571187 12.5,3.125 C12.5,1.74428813 13.6192881,0.625 15,0.625 C16.3807119,0.625 17.5,1.74428813 17.5,3.125 C17.5,3.78804122 17.2366079,4.42392601 16.767767,4.89276695 C16.298926,5.3616079 15.6630412,5.625 15,5.625 Z M15,1.875 C14.3096441,1.875 13.75,2.43464406 13.75,3.125 C13.75,3.81535594 14.3096441,4.375 15,4.375 C15.6903559,4.375 16.25,3.81535594 16.25,3.125 C16.25,2.43464406 15.6903559,1.875 15,1.875 L15,1.875 Z M16.25,18.75 L13.75,18.75 C13.0596441,18.75 12.5,18.1903559 12.5,17.5 L12.5,13.125 L13.75,13.125 L13.75,17.5 L16.25,17.5 L16.25,11.875 L17.5,11.875 L17.5,8.125 C17.5,7.77982203 17.220178,7.5 16.875,7.5 L12.8625,7.5 L10,12.5 L7.1375,7.5 L3.125,7.5 C2.77982203,7.5 2.5,7.77982203 2.5,8.125 L2.5,11.875 L3.75,11.875 L3.75,17.5 L6.25,17.5 L6.25,13.125 L7.5,13.125 L7.5,17.5 C7.5,18.1903559 6.94035594,18.75 6.25,18.75 L3.75,18.75 C3.05964406,18.75 2.5,18.1903559 2.5,17.5 L2.5,13.125 C1.80964406,13.125 1.25,12.5653559 1.25,11.875 L1.25,8.125 C1.25,7.08946609 2.08946609,6.25 3.125,6.25 L7.8625,6.25 L10,10 L12.1375,6.25 L16.875,6.25 C17.9105339,6.25 18.75,7.08946609 18.75,8.125 L18.75,11.875 C18.75,12.5653559 18.1903559,13.125 17.5,13.125 L17.5,17.5 C17.5,18.1903559 16.9403559,18.75 16.25,18.75 Z"/>
</svg>
