<svg xmlns="http://www.w3.org/2000/svg" width="20" height="20" viewBox="0 0 20 20">
  <path fill="#161616" fill-rule="evenodd" d="M7.5,5 L7.5,15 L5,15 L5,5 L7.5,5 L7.5,5 Z M7.5,3.75 L5,3.75 C4.30964406,3.75 3.75,4.30964406 3.75,5 L3.75,15 C3.75,15.6903559 4.30964406,16.25 5,16.25 L7.5,16.25 C8.19035594,16.25 8.75,15.6903559 8.75,15 L8.75,5 C8.75,4.30964406 8.19035594,3.75 7.5,3.75 Z M15,5 L15,15 L12.5,15 L12.5,5 L15,5 L15,5 Z M15,3.75 L12.5,3.75 C11.8096441,3.75 11.25,4.30964406 11.25,5 L11.25,15 C11.25,15.6903559 11.8096441,16.25 12.5,16.25 L15,16.25 C15.6903559,16.25 16.25,15.6903559 16.25,15 L16.25,5 C16.25,4.30964406 15.6903559,3.75 15,3.75 Z"/>
</svg>
