<svg xmlns="http://www.w3.org/2000/svg" width="40" height="20" viewBox="0 0 40 20">
  <g fill="none" fill-rule="evenodd">
    <path fill="#F4F4F4" d="M10,2.5 C11.7258898,2.5 13.125,3.89911016 13.125,5.625 C13.125,7.35088984 11.7258898,8.75 10,8.75 C8.27411016,8.75 6.875,7.35088984 6.875,5.625 C6.875,3.89911016 8.27411016,2.5 10,2.5 L10,2.5 Z M10,1.25 C7.58375422,1.25 5.625,3.20875422 5.625,5.625 C5.625,8.04124578 7.58375422,10 10,10 C12.4162458,10 14.375,8.04124578 14.375,5.625 C14.375,3.20875422 12.4162458,1.25 10,1.25 Z M16.25,18.75 L15,18.75 L15,15.625 C15,14.7961985 14.6707599,14.0013425 14.0847087,13.4152913 C13.4986575,12.8292401 12.7038015,12.5 11.875,12.5 L8.125,12.5 C6.39911016,12.5 5,13.8991102 5,15.625 L5,18.75 L3.75,18.75 L3.75,15.625 C3.75,13.2087542 5.70875422,11.25 8.125,11.25 L11.875,11.25 C14.2912458,11.25 16.25,13.2087542 16.25,15.625 L16.25,18.75 Z"/>
    <polygon fill="#F4F4F4" points="8 5 13 10 12.3 10.7 8 6.4 3.7 10.7 3 10" transform="translate(19 2)"/>
  </g>
</svg>
