<svg xmlns="http://www.w3.org/2000/svg" width="20" height="20" viewBox="0 0 20 20">
  <g fill="none" fill-rule="evenodd">
    <rect width="20" height="20"/>
    <rect width="20" height="20"/>
    <path fill="#198038" d="M10,20 C4.5,20 0,15.5625 0,10 C0,4.5 4.5,0 10,0 C15.5,0 20,4.5 20,10 C20,15.5625 15.5,20 10,20 Z M14.0625,7.125 C12.6875,7.125 11.5625,8.125 11.3125,9.4375 L8.75,9.4375 C8.5,8.125 7.3125,7.125 5.9375,7.125 C4.375,7.125 3.0625,8.4375 3.0625,10 C3.0625,11.5625 4.375,12.875 5.9375,12.875 C7.3125,12.875 8.4375,11.9375 8.75,10.6875 L11.375,10.6875 C11.6875,11.9375 12.8125,12.875 14.125,12.875 C15.6875,12.875 16.9375,11.625 16.9375,10.0625 C16.9375,8.4375 15.625,7.125 14.0625,7.125 Z M5.9375,11.625 C5.0625,11.625 4.3125,10.875 4.3125,10 C4.3125,9.125 5.0625,8.375 5.9375,8.375 C6.8125,8.375 7.5625,9.125 7.5625,10 C7.5625,10.875 6.8125,11.625 5.9375,11.625 Z"/>
  </g>
</svg>
