<svg xmlns="http://www.w3.org/2000/svg" width="20" height="20" viewBox="0 0 20 20">
  <path fill="#161616" fill-rule="evenodd" d="M7.5,6.25 L4.2375,6.25 C5.89758404,3.6987065 9.03768987,2.54271582 11.9557707,3.40861518 C14.8738516,4.27451454 16.8751937,6.95615745 16.875,10 L18.1250043,10 C18.1285259,6.57532682 15.9843048,3.51612924 12.76386,2.35116833 C9.54341515,1.18620742 5.93826605,2.1656328 3.75,4.8 L3.75,2.5 L2.5,2.5 L2.5,7.5 L7.5,7.5 L7.5,6.25 Z M12.5,13.75 L15.7625,13.75 C14.102416,16.3012935 10.9623101,17.4572842 8.04422928,16.5913848 C5.12614844,15.7254855 3.12480628,13.0438426 3.125,10 L1.87499566,10 C1.87147405,13.4246732 4.01569519,16.4838708 7.23614002,17.6488317 C10.4565849,18.8137926 14.061734,17.8343672 16.25,15.2 L16.25,17.5 L17.5,17.5 L17.5,12.5 L12.5,12.5 L12.5,13.75 Z"/>
</svg>
