<svg xmlns="http://www.w3.org/2000/svg" width="20" height="20" viewBox="0 0 20 20">
  <g fill="none" fill-rule="evenodd">
    <rect width="20" height="20" fill="#161616"/>
    <path fill="#FFF" d="M8.13333333 17.2L3.86666667 17.2C3.27784316 17.1992395 2.80067598 16.6624264 2.8 16L2.8 13.6C2.80067598 12.9375736 3.27784316 12.4007605 3.86666667 12.4L8.13333333 12.4C8.72215684 12.4007605 9.19932402 12.9375736 9.2 13.6L9.2 16C9.19932402 16.6624264 8.72215684 17.1992395 8.13333333 17.2zM3.86666667 13.6L3.86666667 16 8.13333333 16 8.13333333 13.6 3.86666667 13.6zM16.24 11.6L8.56 11.6C8.03005885 11.5992395 7.60060838 11.0624264 7.6 10.4L7.6 8C7.60060838 7.33757356 8.03005885 6.80076048 8.56 6.8L16.24 6.8C16.7699412 6.80076048 17.1993916 7.33757356 17.2 8L17.2 10.4C17.1993916 11.0624264 16.7699412 11.5992395 16.24 11.6zM8.56 8L8.56 10.4 16.24 10.4 16.24 8 8.56 8z"/>
    <path fill="#FFF" d="M9.8,7.6 L3.8,7.6 C3.24797796,7.59923952 2.80063373,7.06242644 2.8,6.4 L2.8,4 C2.80063373,3.33757356 3.24797796,2.80076048 3.8,2.8 L9.8,2.8 C10.352022,2.80076048 10.7993663,3.33757356 10.8,4 L10.8,6.4 C10.7993663,7.06242644 10.352022,7.59923952 9.8,7.6 Z M3.8,4 L3.8,6.4 L9.8,6.4 L9.8,4 L3.8,4 Z"/>
  </g>
</svg>
