<svg xmlns="http://www.w3.org/2000/svg" width="20" height="20" viewBox="0 0 20 20">
  <path fill="#F4F4F4" fill-rule="evenodd" d="M18.75,17.86875 L14.03125,13.125 C16.374581,10.2976003 16.0821769,6.1277481 13.3671855,3.65505497 C10.6521942,1.18236184 6.47324054,1.27990068 3.87657061,3.87657061 C1.27990068,6.47324054 1.18236184,10.6521942 3.65505497,13.3671855 C6.1277481,16.0821769 10.2976003,16.374581 13.125,14.03125 L17.86875,18.75 L18.75,17.86875 Z M3.125,8.75 C3.125,5.64339828 5.64339828,3.125 8.75,3.125 C11.8566017,3.125 14.375,5.64339828 14.375,8.75 C14.375,11.8566017 11.8566017,14.375 8.75,14.375 C5.64339828,14.375 3.125,11.8566017 3.125,8.75 Z"/>
</svg>
