<svg xmlns="http://www.w3.org/2000/svg" width="20" height="20" viewBox="0 0 20 20">
  <path fill-rule="evenodd" d="M16.875,10.475 L16.875,9.51875 L18.075,8.46875 C18.5317005,8.06621331 18.631992,7.39320457 18.3125,6.875 L16.8375,4.375 C16.6144381,3.98864495 16.202374,3.75045759 15.75625,3.75 C15.6204063,3.74895929 15.4853013,3.77006945 15.35625,3.8125 L13.8375,4.325 C13.5752875,4.15075461 13.3017661,3.99415838 13.01875,3.85625 L12.7,2.28125 C12.5820394,1.68735528 12.055385,1.26339852 11.45,1.275 L8.525,1.275 C7.91961496,1.26339852 7.3929606,1.68735528 7.275,2.28125 L6.95625,3.85625 C6.67120818,3.99412502 6.39560567,4.15071735 6.13125,4.325 L4.64375,3.7875 C4.51331071,3.75351473 4.37823311,3.74085121 4.24375,3.75 C3.79762601,3.75045759 3.38556188,3.98864495 3.1625,4.375 L1.6875,6.875 C1.3866253,7.39188347 1.49404015,8.04947197 1.94375,8.44375 L3.125,9.525 L3.125,10.48125 L1.94375,11.53125 C1.48078167,11.9287444 1.37246601,12.602415 1.6875,13.125 L3.1625,15.625 C3.38556188,16.011355 3.79762601,16.2495424 4.24375,16.25 C4.37959371,16.2510407 4.51469868,16.2299306 4.64375,16.1875 L6.1625,15.675 C6.42471248,15.8492454 6.6982339,16.0058416 6.98125,16.14375 L7.3,17.71875 C7.4179606,18.3126447 7.94461496,18.7366015 8.55,18.725 L11.5,18.725 C12.105385,18.7366015 12.6320394,18.3126447 12.75,17.71875 L13.06875,16.14375 C13.3537918,16.005875 13.6293943,15.8492826 13.89375,15.675 L15.40625,16.1875 C15.5353013,16.2299306 15.6704063,16.2510407 15.80625,16.25 C16.252374,16.2495424 16.6644381,16.011355 16.8875,15.625 L18.3125,13.125 C18.6133747,12.6081165 18.5059598,11.950528 18.05625,11.55625 L16.875,10.475 Z M15.75625,15 L13.6125,14.275 C13.1106654,14.7000676 12.5371231,15.0323412 11.91875,15.25625 L11.475,17.5 L8.525,17.5 L8.08125,15.28125 C7.46776352,15.0509861 6.89732367,14.7192859 6.39375,14.3 L4.24375,15 L2.76875,12.5 L4.46875,11 C4.35318556,10.3530368 4.35318556,9.69071315 4.46875,9.04375 L2.76875,7.5 L4.24375,5 L6.3875,5.725 C6.88933461,5.29993244 7.46287694,4.96765884 8.08125,4.74375 L8.525,2.5 L11.475,2.5 L11.91875,4.71875 C12.5322365,4.94901388 13.1026763,5.28071409 13.60625,5.7 L15.75625,5 L17.23125,7.5 L15.53125,9 C15.6468144,9.64696315 15.6468144,10.3092868 15.53125,10.95625 L17.23125,12.5 L15.75625,15 Z M10,13.75 C7.92893219,13.75 6.25,12.0710678 6.25,10 C6.25,7.92893219 7.92893219,6.25 10,6.25 C12.0710678,6.25 13.75,7.92893219 13.75,10 C13.760129,10.9976325 13.3682943,11.9573562 12.6628253,12.6628253 C11.9573562,13.3682943 10.9976325,13.760129 10,13.75 Z M10,7.5 C9.33231193,7.48444591 8.68734984,7.74284013 8.21509499,8.21509499 C7.74284013,8.68734984 7.48444591,9.33231193 7.5,10 C7.48444591,10.6676881 7.74284013,11.3126502 8.21509499,11.784905 C8.68734984,12.2571599 9.33231193,12.5155541 10,12.5 C10.6676881,12.5155541 11.3126502,12.2571599 11.784905,11.784905 C12.2571599,11.3126502 12.5155541,10.6676881 12.5,10 C12.5155541,9.33231193 12.2571599,8.68734984 11.784905,8.21509499 C11.3126502,7.74284013 10.6676881,7.48444591 10,7.5 Z" transform="translate(.5)"/>
</svg>
