<svg xmlns="http://www.w3.org/2000/svg" width="20" height="20" viewBox="0 0 20 20">
  <path fill="#161616" fill-rule="evenodd" d="M3.125,17.5000149 C2.77982203,17.5000149 2.49999505,17.220178 2.49999505,16.875 L2.49999505,3.125 C2.49911,2.90082203 2.61835363,2.6933381 2.8125,2.58125 C3.00587567,2.4696045 3.24412433,2.4696045 3.4375,2.58125 L15.3125,9.45625 C15.508319,9.56722576 15.6293427,9.77492065 15.6293427,10 C15.6293427,10.2250793 15.508319,10.4327742 15.3125,10.54375 L3.4375,17.41875 C3.34224818,17.4727378 3.23448524,17.5007561 3.125,17.5000149 Z M3.75,4.20625 L3.75,15.79375 L13.75,10 L3.75,4.20625 Z M17.5,2.5 L18.75,2.5 L18.75,17.5 L17.5,17.5 L17.5,2.5 Z"/>
</svg>
