<svg xmlns="http://www.w3.org/2000/svg" width="20" height="20" viewBox="0 0 20 20">
  <path fill="#525252" fill-rule="evenodd" d="M10,4.075 L11.725,7.5625 L12.0125,8.1875 L12.6375,8.28125 L16.4875,8.8375 L13.75,11.525 L13.28125,11.98125 L13.39375,12.60625 L14.05,16.4375 L10.60625,14.63125 L10,14.375 L9.41875,14.68125 L5.975,16.4625 L6.6,12.63125 L6.7125,12.00625 L6.25,11.525 L3.4875,8.80625 L7.3375,8.25 L7.9625,8.15625 L8.25,7.53125 L10,4.075 L10,4.075 Z M10,1.25 L7.15625,7.0125 L0.8,7.93125 L5.4,12.41875 L4.3125,18.75 L10,15.7625 L15.6875,18.75 L14.6,12.41875 L19.2,7.9375 L12.84375,7.0125 L10,1.25 Z"/>
</svg>
