<svg xmlns="http://www.w3.org/2000/svg" width="20" height="20" viewBox="0 0 20 20">
  <g fill="none" fill-rule="evenodd">
    <rect width="20" height="20"/>
    <rect width="20" height="20"/>
    <rect width="20" height="20"/>
    <rect width="20" height="20"/>
    <path fill="#0F62FE" d="M10,19.9375 C4.5625,19.9375 0.0625,15.5 0.0625,10 C0.0625,4.5 4.5625,0.0625 10,0.0625 C15.5,0.0625 19.9375,4.5 19.9375,10 C19.9375,15.5 15.5,19.9375 10,19.9375 Z"/>
    <path fill="#FFF" fill-rule="nonzero" d="M3.9375,11.6875 L8.3125,16.0625 C8.4375,16.1875 8.5625,16.25 8.75,16.25 L15,16.25 C15.6875,16.25 16.25,15.6875 16.25,15 L16.25,5 C16.25,4.3125 15.6875,3.75 15,3.75 L5,3.75 C4.3125,3.75 3.75,4.3125 3.75,5 L3.75,11.25 C3.75,11.4375 3.8125,11.5625 3.9375,11.6875 Z M5,5 L15,5 L15,15 L8.75,15 L8.75,12.5 C8.75,11.8125 8.1875,11.25 7.5,11.25 L5,11.25 L5,5 Z"/>
    <polygon fill="#FFF" fill-rule="nonzero" points="9.75 9.5 8.125 7.875 7.25 8.75 9.75 11.25 14.313 6.688 13.438 5.813"/>
  </g>
</svg>
