<svg xmlns="http://www.w3.org/2000/svg" width="20" height="20" viewBox="0 0 20 20">
  <g fill="none" fill-rule="evenodd">
    <path fill="#0F62FE" d="M10,20 C4.48631579,20 0,15.5136842 0,10 C0,4.48631579 4.48631579,0 10,0 C15.5136842,0 20,4.48631579 20,10 C20,15.5136842 15.5136842,20 10,20"/>
    <rect width="8" height="11" x="6.5" y="4.5" stroke="#FFF"/>
    <rect width="4" height="1" x="9" y="3" fill="#FFF"/>
    <rect width="5" height="1" x="8" y="8" fill="#FFF"/>
    <rect width="5" height="1" x="8" y="10" fill="#FFF"/>
    <rect width="2" height="1" x="8" y="12" fill="#FFF"/>
    <circle cx="7.5" cy="6.5" r="3.5" fill="#FFF" stroke="#0F62FE"/>
    <g fill="#0F62FE" transform="translate(7.25 4.5)">
      <polygon points=".001 2.054 .501 2.054 .501 .054 .001 .054"/>
      <polygon points=".001 2.051 1.14 3 1.46 2.615 0 1.402"/>
    </g>
  </g>
</svg>
