<svg xmlns="http://www.w3.org/2000/svg" width="20" height="20" viewBox="0 0 20 20">
  <g fill="none" fill-rule="evenodd">
    <path fill="#DA1E28" d="M10,1 C5,1 1,5 1,10 C1,15 5,19 10,19 C15,19 19,15 19,10 C19,5 15,1 10,1 Z M9.2,5 L10.7,5 L10.7,12 L9.2,12 L9.2,5 Z M10,16 C9.4,16 9,15.6 9,15 C9,14.4 9.4,14 10,14 C10.6,14 11,14.4 11,15 C11,15.6 10.6,16 10,16 Z"/>
    <path fill="#000" d="M9.2,5 L10.7,5 L10.7,12 L9.2,12 L9.2,5 Z M10,16 C9.4,16 9,15.6 9,15 C9,14.4 9.4,14 10,14 C10.6,14 11,14.4 11,15 C11,15.6 10.6,16 10,16 Z" opacity="0"/>
  </g>
</svg>
