<svg xmlns="http://www.w3.org/2000/svg" width="20" height="16" viewBox="0 0 20 16">
  <g fill="none" fill-rule="evenodd">
    <rect width="20" height="16"/>
    <path fill="#161616" d="M8,1 C4.1,1 1,4.1 1,8 C1,11.9 4.1,15 8,15 C11.9,15 15,11.9 15,8 C15,4.1 11.9,1 8,1 Z M5,13.2 L5,11.7 C5,10.8 5.6,10.1 6.5,10 L9.5,10 C10.4,10.1 11,10.8 11,11.7 L11,13.2 C9.1,14.3 6.9,14.3 5,13.2 Z M12,12 L12,11.2 C12,10.3 10.9,9.1 9.5,9 L6.5,9 C5.1,9.1 4,10.3 4,11.7 L4,12.5 C1.5,10.3 1.3,6.5 3.5,4 C5.7,1.5 9.5,1.3 12,3.5 C14.5,5.7 14.7,9.5 12.5,12 C12.4,12.2 12.2,12.3 12,12.5 L12,12 Z M8,3 C6.6,3 5.5,4.1 5.5,5.5 C5.5,6.9 6.6,8 8,8 C9.4,8 10.5,6.9 10.5,5.5 C10.5,4.1 9.4,3 8,3 Z M8,7 C7.2,7 6.5,6.3 6.5,5.5 C6.5,4.7 7.2,4 8,4 C8.8,4 9.5,4.7 9.5,5.5 C9.5,6.3 8.8,7 8,7 Z" transform="translate(2)"/>
  </g>
</svg>
