<svg xmlns="http://www.w3.org/2000/svg" width="125" height="125" viewBox="0 0 125 125">
  <g fill="none" fill-rule="evenodd">
    <g fill="#6F6F6F" transform="translate(1 1)">
      <path d="M85,48.5 C85,35.5386598 74.4613402,25 61.5,25 C48.5386598,25 38,35.5386598 38,48.5 C38,61.4613402 48.5386598,72 61.5,72 C74.4613402,72 85,61.4613402 85,48.5 Z M61.5,68.3659794 C50.4768041,68.3659794 41.6340206,59.4020619 41.6340206,48.5 C41.6340206,37.5979381 50.5979381,28.6340206 61.5,28.6340206 C72.4020619,28.6340206 81.3659794,37.5979381 81.3659794,48.5 C81.3659794,59.4020619 72.5231959,68.3659794 61.5,68.3659794 Z"/>
      <path d="M62,0 C27.8220503,0 0,27.8220503 0,62 C0,96.1779497 27.8220503,124 62,124 C96.1779497,124 124,96.1779497 124,62 C124,27.8220503 96.1779497,0 62,0 Z M33.8181818,113.087041 L33.8181818,99.2959381 C33.8181818,91.5009671 40.1740812,85.0251451 48.0889749,85.0251451 L75.5512573,85.0251451 C83.3462282,85.0251451 89.8220503,91.3810445 89.8220503,99.2959381 L89.8220503,113.206963 C81.5473888,117.644101 72.073501,120.282398 62,120.282398 C51.8065764,120.402321 42.212766,117.764023 33.8181818,113.087041 Z M93.2998066,111.168279 L93.2998066,99.2959381 C93.2998066,89.4622824 85.2649903,81.4274662 75.4313346,81.4274662 L48.0889749,81.4274662 C38.2553191,81.4274662 30.2205029,89.4622824 30.2205029,99.2959381 L30.2205029,110.928433 C14.1508704,100.495164 3.59767892,82.5067698 3.59767892,62 C3.59767892,29.860735 29.7408124,3.59767892 62,3.59767892 C94.2591876,3.59767892 120.402321,29.7408124 120.402321,62 C120.282398,82.6266925 109.609284,100.73501 93.2998066,111.168279 Z"/>
    </g>
    <rect width="125" height="125"/>
  </g>
</svg>
