<svg xmlns="http://www.w3.org/2000/svg" width="20" height="20" viewBox="0 0 20 20">
  <g fill="none" fill-rule="evenodd">
    <rect width="20" height="20"/>
    <polygon fill="#525252" points="7.962 13.98 12.961 9.98 7.962 5.98"/>
    <rect width="20" height="20" transform="rotate(180 10 10)"/>
    <path fill="#525252" d="M9.9615,18.5798 C5.2615,18.5798 1.3615,14.6798 1.3615,9.9798 C1.3615,5.2798 5.2615,1.3798 9.9615,1.3798 C14.6615,1.3798 18.5615,5.2798 18.5615,9.9798 C18.5615,14.6798 14.7615,18.5798 9.9615,18.5798 Z M9.9615,2.4798 C5.8615,2.4798 2.4615,5.7798 2.4615,9.9798 C2.4615,14.1798 5.7615,17.4798 9.9615,17.4798 C14.1615,17.4798 17.4615,14.1798 17.4615,9.9798 C17.4615,5.7798 14.0615,2.4798 9.9615,2.4798 Z"/>
  </g>
</svg>
