<svg xmlns="http://www.w3.org/2000/svg" width="20" height="20" viewBox="0 0 20 20">
  <g fill="none" fill-rule="evenodd">
    <rect width="20" height="20"/>
    <polygon fill="#525252" points="12 14 7 10 12 6"/>
    <rect width="20" height="20"/>
    <path fill="#525252" d="M1.4,10 C1.4,5.3 5.3,1.4 10,1.4 C14.7,1.4 18.6,5.3 18.6,10 C18.6,14.7 14.7,18.6 10,18.6 C5.2,18.6 1.4,14.7 1.4,10 Z M2.5,10 C2.5,14.1 5.8,17.5 10,17.5 C14.2,17.5 17.5,14.2 17.5,10 C17.5,5.8 14.1,2.5 10,2.5 C5.9,2.5 2.5,5.9 2.5,10 Z"/>
  </g>
</svg>
