<svg xmlns="http://www.w3.org/2000/svg" width="20" height="20" viewBox="0 0 20 20">
  <g fill="none" fill-rule="evenodd">
    <rect width="20" height="20"/>
    <rect width="20" height="20"/>
    <rect width="20" height="20"/>
    <path fill="#0F62FE" d="M17.5,6.25 L13.75,6.25 L13.75,3.75 C13.75,3.0625 13.1875,2.5 12.5,2.5 L7.5,2.5 C6.8125,2.5 6.25,3.0625 6.25,3.75 L6.25,6.25 L2.5,6.25 C1.8125,6.25 1.25,6.8125 1.25,7.5 L1.25,16.25 C1.25,16.9375 1.8125,17.5 2.5,17.5 L17.5,17.5 C18.1875,17.5 18.75,16.9375 18.75,16.25 L18.75,7.5 C18.75,6.8125 18.1875,6.25 17.5,6.25 Z M7.5,3.75 L12.5,3.75 L12.5,6.25 L7.5,6.25 L7.5,3.75 Z"/>
    <rect width="20" height="20"/>
    <rect width="1.25" height="6.25" x="7.563" y="8.75" fill="#FFF" fill-rule="nonzero"/>
    <rect width="1.25" height="6.25" x="11.313" y="8.75" fill="#FFF" fill-rule="nonzero"/>
  </g>
</svg>
