<svg xmlns="http://www.w3.org/2000/svg" width="20" height="20" viewBox="0 0 20 20">
  <path fill="#161616" fill-rule="evenodd" d="M10,1.25 C5.125,1.25 1.25,5.125 1.25,10 C1.25,14.875 5.125,18.75 10,18.75 C14.875,18.75 18.75,14.875 18.75,10 C18.75,5.125 14.875,1.25 10,1.25 Z M10,17.5 C5.875,17.5 2.5,14.125 2.5,10 C2.5,5.875 5.875,2.5 10,2.5 C14.125,2.5 17.5,5.875 17.5,10 C17.5,14.125 14.125,17.5 10,17.5 Z M13.375,14.375 L10,11 L6.625,14.375 L5.625,13.375 L9,10 L5.625,6.625 L6.625,5.625 L10,9 L13.375,5.625 L14.375,6.625 L11,10 L14.375,13.375 L13.375,14.375 Z"/>
</svg>
