<svg xmlns="http://www.w3.org/2000/svg" width="20" height="20" viewBox="0 0 20 20">
  <path fill="#161616" fill-rule="evenodd" d="M1.25,16.875 L18.75,16.875 L18.75,18.125 L1.25,18.125 L1.25,16.875 Z M15.88125,5.625 C16.1159713,5.39053968 16.2478583,5.07238656 16.2478583,4.740625 C16.2478583,4.40886344 16.1159713,4.09071032 15.88125,3.85625 L13.64375,1.61875 C13.4092897,1.3840287 13.0911366,1.25214168 12.759375,1.25214168 C12.4276134,1.25214168 12.1094603,1.3840287 11.875,1.61875 L2.5,10.99375 L2.5,15 L6.50625,15 L15.88125,5.625 Z M12.75625,2.5 L15,4.74375 L13.125,6.61875 L10.88125,4.375 L12.75625,2.5 Z M3.75,13.75 L3.75,11.50625 L10,5.25625 L12.24375,7.5 L5.99375,13.75 L3.75,13.75 Z"/>
</svg>
