<svg xmlns="http://www.w3.org/2000/svg" width="20" height="20" viewBox="0 0 20 20">
  <path fill="#161616" fill-rule="evenodd" d="M17.5,3.75 L2.5,3.75 C1.80964406,3.75 1.25,4.30964406 1.25,5 L1.25,15 C1.25,15.6903559 1.80964406,16.25 2.5,16.25 L17.5,16.25 C18.1903559,16.25 18.75,15.6903559 18.75,15 L18.75,5 C18.75,4.30964406 18.1903559,3.75 17.5,3.75 Z M16.125,5 L10,9.2375 L3.875,5 L16.125,5 Z M2.5,15 L2.5,5.56875 L9.64375,10.5125 C9.85799663,10.6611294 10.1420034,10.6611294 10.35625,10.5125 L17.5,5.56875 L17.5,15 L2.5,15 Z"/>
</svg>
