<svg xmlns="http://www.w3.org/2000/svg" width="150" height="150" viewBox="0 0 150 150">
  <g fill="none" fill-rule="evenodd" transform="translate(34 15)">
    <path fill="#BEBEBE" d="M4.32144956,3.25268541 C4.37763198,3.22801725 4.43466565,3.20675159 4.49425307,3.18718719 C4.52574927,3.17697967 4.55724548,3.16932403 4.59299793,3.15996714 C4.67471781,3.13870149 4.75814019,3.12253959 4.84411632,3.11063082 C4.88157126,3.10552706 4.91647246,3.10127393 4.95648116,3.0970208 C5.09012721,3.08681328 5.22802952,3.08426141 5.37274181,3.0970208 C5.3829568,3.09787143 5.39061803,3.09617017 5.40168427,3.0970208 C5.61875271,3.11743583 5.83582115,3.17357716 6.03756711,3.24077664 C6.0758733,3.25268541 6.1141795,3.26629543 6.15333694,3.27990545 C6.25463555,3.31648238 6.34912416,3.35476056 6.43424904,3.39303874 C6.46829899,3.40835002 6.50234894,3.42366129 6.53639889,3.43982319 C6.74325235,3.53764521 6.87945215,3.61845471 6.87945215,3.61845471 L9.5047034,5.12321259 L9.69623437,3.1616684 L12.3623456,1.63224235 L37.5942107,18.5341865 L38.3330946,16.7810457 C38.4812119,16.4212308 38.7067928,16.129466 38.967275,15.8785313 L12.1946495,0.531531946 C11.7826451,0.294207214 11.385112,0.138542605 11.012265,0.0611356139 C10.4104321,-0.0664583278 9.87159162,0.0083967847 9.43575224,0.260182163 L4.1214061,3.34710493 C4.1231086,3.3462543 4.12651359,3.34455305 4.12906734,3.34285179 C4.14098482,3.33689741 4.15375355,3.33179365 4.16652229,3.32413802 C4.20567973,3.30457361 4.25505216,3.2816067 4.32144956,3.25268541"/>
    <path fill="#DCDCDC" d="M8.03774637,20.8043379 C8.01646515,20.8000848 7.99177894,20.7966823 7.97049772,20.7924291 L8.02838263,20.2395221 L9.50529927,5.12304247 L6.88004803,3.61828458 C6.76342694,3.55108511 6.64935961,3.49409315 6.53614352,3.43965306 C6.50294482,3.42434179 6.47059736,3.40903052 6.43484491,3.39286862 C6.33950505,3.35033731 6.24586769,3.31376038 6.15308157,3.27973532 C6.11562662,3.2661253 6.07646918,3.25336591 6.03731173,3.24060652 C5.80747456,3.16660203 5.58444738,3.1172657 5.37248644,3.0977013 C5.21841041,3.08494191 5.0805081,3.08664316 4.95622578,3.0977013 C4.91791959,3.10110381 4.88131589,3.10620756 4.84471219,3.11131132 C4.75277732,3.12322009 4.66765244,3.13938199 4.59274255,3.15979702 C4.55954385,3.16915391 4.52634515,3.17680954 4.49399769,3.18786769 C4.42845154,3.20913334 4.37056662,3.230399 4.32119419,3.25251528 C4.26841677,3.27548219 4.21649059,3.29759848 4.16626691,3.32481852 C4.15520068,3.3307729 4.13732445,3.33927916 4.12881197,3.34353229 C3.42908547,3.7450279 2.99494859,4.60671232 2.99154359,5.83246478 L3.55507029,22.5906531 L6.29694261,20.9982807 C6.75406321,20.7328853 7.34568111,20.6597314 8.01816765,20.801786"/>
    <path fill="#DCDCDC" d="M4.12898222 3.34319204C4.1374947 3.33893891 4.15537093 3.33043265 4.16643716 3.32447827 4.15366843 3.33128328 4.1408997 3.33638703 4.12898222 3.34319204M4.49391257 3.18744237C4.4351764 3.20615615 4.37729148 3.22827243 4.32110907 3.2529406 4.37048149 3.23082431 4.42836641 3.20870803 4.49391257 3.18744237M4.95614066 3.09736105C5.08042298 3.08715353 5.21917653 3.08460166 5.37240131 3.09736105 5.22854027 3.08375103 5.09063796 3.08630291 4.95614066 3.09736105M6.53597327 3.43999331C6.50192332 3.42383142 6.46787337 3.40766952 6.43467466 3.39235824 6.47042711 3.40852014 6.50277457 3.42383142 6.53597327 3.43999331M6.15316669 3.27965026C6.11400925 3.26604024 6.07570305 3.25243022 6.03739686 3.24052145 6.0765543 3.25328085 6.11571175 3.26604024 6.15316669 3.27965026M4.84428657 3.11105613C4.75831044 3.12211427 4.67403681 3.13827617 4.59316818 3.16039246 4.66722682 3.13997743 4.7523517 3.12381553 4.84428657 3.11105613M38.9034313 19.4112672L74.0915022 42.9821214 74.2736694 37.6818691C74.2736694 37.4079674 74.2464295 37.1255595 74.2055695 36.8405997 74.1945033 36.7674458 74.1825858 36.6934413 74.1698171 36.6194368 74.1238497 36.3608465 74.0651135 36.1005548 73.9893523 35.8394125 73.9808399 35.8113419 73.9757324 35.7841218 73.9672199 35.7552005 73.8803925 35.4702407 73.7722839 35.1861316 73.6531091 34.9054249 73.6224641 34.8331217 73.5901167 34.7616691 73.5577692 34.6893658 73.4479581 34.4486386 73.327932 34.2113139 73.197691 33.9782423 73.173856 33.9357109 73.1517235 33.8914784 73.1270373 33.8489471 72.9729613 33.5844023 72.8035628 33.3283638 72.6248005 33.0808315 72.5813869 33.0204371 72.5345682 32.9608932 72.4886007 32.9004988 72.3268635 32.6878422 72.1566137 32.4828413 71.979554 32.2897491 71.9506115 32.2582759 71.9233716 32.2242509 71.8944291 32.1927777 71.6918319 31.9792705 71.4790197 31.7827758 71.2593975 31.6007418 71.2091738 31.5590611 71.1589501 31.5190817 71.1078752 31.4791022 70.8805918 31.3004707 70.6490521 31.133748 70.4098512 30.9959465L43.3758924 15.7033873C43.141799 15.5681377 42.9051518 15.4618094 42.6685047 15.3699418 42.621686 15.3520786 42.5748673 15.3350661 42.5288999 15.3180536 42.0522006 15.1504802 41.5789062 15.0662682 41.1260419 15.064567 41.0894382 15.0637163 41.0536857 15.064567 41.0179333 15.0654176 40.5625152 15.0764757 40.1326346 15.1683434 39.7487214 15.3384686 39.7223326 15.351228 39.6967952 15.3631368 39.6704065 15.3758962 39.4065193 15.5026395 39.1766822 15.6778685 38.967275 15.8786163 38.7067928 16.1295511 38.4812119 16.4213159 38.3330946 16.7811308L37.5942107 18.5342716 38.9034313 19.4112672z"/>
    <path fill="#BEBEBE" d="M74.2260846,67.0986523 L74.3393007,67.1641505 L76.8709146,68.6340328 C77.4029451,68.9411088 77.9085869,69.3417538 78.3784762,69.794287 L79.588125,34.5962222 C79.5932082,32.9187872 78.7913318,30.9963718 77.6038398,29.5511578 C77.0471231,28.8749099 76.4078353,28.303289 75.7251337,27.9094491 L48.6903237,12.6168899 C48.2187319,12.3446894 47.7360738,12.1618048 47.2627795,12.0622815 C46.3493895,11.87004 45.471752,11.9908289 44.7847943,12.3897726 L39.528333,15.4418197 C39.5734492,15.4171516 39.6236729,15.3984378 39.6704916,15.3754709 C39.6968803,15.3635621 39.7224178,15.3508027 39.7488065,15.3388939 C40.1327197,15.1687687 40.5626003,15.0760504 41.0180184,15.0658429 C41.0537709,15.0649923 41.0895233,15.0641417 41.126127,15.0641417 C41.5789914,15.0666935 42.0522857,15.1500549 42.528985,15.3176283 C42.5749524,15.3346408 42.6217711,15.3516533 42.6685898,15.3695165 C42.9043857,15.4613841 43.1393304,15.5660112 43.3725725,15.7004101 L43.3759775,15.702962 L70.4099363,30.9955212 C70.6491373,31.1333227 70.8806769,31.300896 71.1079603,31.4786769 C71.158184,31.519507 71.209259,31.5586358 71.2594826,31.6011671 C71.4782536,31.7832011 71.6910658,31.9788452 71.8945142,32.193203 C71.9234567,32.2238256 71.9506966,32.2578506 71.9796391,32.2893238 C72.0834914,32.4033077 72.1890463,32.516441 72.2886424,32.6372299 C72.3584448,32.7214419 72.4214372,32.8133096 72.4886859,32.9009241 C72.5346533,32.9613185 72.5797695,33.0200118 72.6248857,33.0812568 C72.8036479,33.3287891 72.9721952,33.583977 73.1271225,33.8493724 C73.1518087,33.8919037 73.1739411,33.9361363 73.1977761,33.9786676 C73.3280172,34.2108885 73.4480432,34.4490639 73.5578543,34.6897911 C73.5902018,34.7620944 73.6225492,34.8326963 73.6531942,34.9058502 C73.7732203,35.1865569 73.8804776,35.4698154 73.967305,35.7556259 C73.9758175,35.7836965 73.980925,35.8117672 73.9894375,35.8389872 C74.0651986,36.1009801 74.1239348,36.3604211 74.1699022,36.6198622 C74.1826709,36.6938666 74.1945884,36.7670205 74.2056547,36.841025 C74.2456634,37.1251342 74.2746058,37.4075421 74.2737546,37.6814438 L74.0915873,42.9816961 L76.591705,44.6574299 L74.2277871,67.1003536 L74.2260846,67.0986523"/>
    <path fill="#BEBEBE" d="M79.1331934,70.6000002 C78.4802855,69.8055153 77.7022442,69.1139561 76.8714253,68.6333523 L45.2151857,50.2606753 L43.4948119,44.8932235 C43.0972787,43.6436535 42.2587986,42.2350163 41.2407051,40.9956539 C40.2975214,39.848159 39.2019643,38.8452706 38.160887,38.2447285 L9.44230686,21.3717056 C8.94262383,21.0833433 8.46251951,20.8953549 8.01816765,20.801786 C7.34482986,20.6597314 6.75406321,20.7328853 6.29694261,20.9982807 L0.98174522,24.0843528 C1.43886582,23.8189574 2.03048372,23.7458036 2.70297026,23.8878582 C3.14817337,23.981427 3.62827768,24.1702661 4.12796072,24.4577778 L32.8456896,41.3308006 C33.8876181,41.9313428 34.9831753,42.9350818 35.9255077,44.0825766 C36.9436012,45.3219391 37.7829325,46.7297256 38.1804657,47.9792956 L39.9008395,53.3467474 L71.556228,71.720275 C72.3870468,72.2000282 73.1659394,72.8915874 73.8188472,73.6860723 C74.9416444,75.0513275 75.6890408,76.7177044 75.6847845,78.1169846 L73.7643673,117.819116 C73.7609623,118.74885 73.4093966,119.407235 72.8313986,119.743232 L78.1457448,116.65716 C78.7254452,116.321163 79.0770109,115.662778 79.0795647,114.733043 L81,75.0309125 C81.0042382,73.6316323 80.2559905,71.9652554 79.1331934,70.6000002"/>
    <path fill="#DCDCDC" d="M71.5559726,71.7206153 L39.9005841,53.3470877 L38.1802104,47.9796358 C37.4157889,45.5723635 35.0127136,42.5807109 32.8454342,41.3302902 L4.12855659,24.458118 C1.86508608,23.1524067 0.00595874147,23.9077628 0,26.1185405 L1.6420589,76.2093701 C1.63610016,78.310417 3.41265637,81.0792056 5.57908451,82.3296262 L69.8049538,119.382907 C71.9722332,120.633327 73.7581532,119.919652 73.7649632,117.818605 L75.6853946,78.1173249 C75.6913392,75.9056966 73.8185918,73.0263266 71.5559726,71.7206153"/>
    <polygon fill="#DCDCDC" points="72.003 65.809 74.227 67.101 76.592 44.658 73.914 46.192"/>
    <polygon fill="#F3F3F3" points="73.913 46.191 76.592 44.657 12.362 1.632 9.696 3.162"/>
    <path fill="#F8F9FC" d="M7.97083822,20.7926843 C7.99126819,20.7969375 8.01680565,20.80034 8.03808687,20.8045931 C8.48243873,20.898162 8.95913805,21.0921048 9.45967233,21.3796165 L38.1774012,38.2526393 C39.2184785,38.8531815 40.3148869,39.8569205 41.2572193,41.0044153 C42.2753129,42.2437778 43.1137929,43.6515643 43.5113261,44.9019849 L45.2316999,50.2685861 L72.0043253,65.8086776 L72.0043253,65.8078269 L73.9136763,46.1915344 L9.6963195,3.16175346 L8.02872313,20.2397772 L7.97083822,20.7926843 Z"/>
  </g>
</svg>
