<svg xmlns="http://www.w3.org/2000/svg" width="20" height="20" viewBox="0 0 20 20">
  <path fill="#161616" fill-rule="evenodd" d="M6.98125,3.75 L9.11875,5.88125 L9.48125,6.25 L17.5,6.25 L17.5,16.25 L2.5,16.25 L2.5,3.75 L6.98125,3.75 L6.98125,3.75 Z M6.98125,2.49999961 L2.5,2.49999961 C1.80964406,2.49999961 1.25,3.05964406 1.25,3.75 L1.25,16.25 C1.25,16.9403559 1.80964406,17.4999996 2.5,17.4999996 L17.5,17.4999996 C18.1903559,17.4999996 18.75,16.9403559 18.75,16.25 L18.75,6.25 C18.75,5.55964406 18.1903559,4.99999961 17.5,4.99999961 L10,4.99999961 L7.86875,2.86875 C7.63387726,2.63247538 7.31440287,2.49973601 6.98125,2.49999961 Z"/>
</svg>
