<svg xmlns="http://www.w3.org/2000/svg" width="20" height="20" viewBox="0 0 20 20">
  <g fill="none" fill-rule="evenodd">
    <path fill="#DA1E28" d="M20,10 C20,15.523 15.523,20 10,20 C4.477,20 0,15.523 0,10 C0,4.477 4.477,0 10,0 C15.523,0 20,4.477 20,10"/>
    <path fill="#FFF" d="M10,8.3876 C9.1,8.3876 8.369,9.1176 8.369,10.0176 C8.369,10.9176 9.1,11.6486 10,11.6486 C10.9,11.6486 11.631,10.9176 11.631,10.0176 C11.631,9.1176 10.9,8.3876 10,8.3876"/>
    <path fill="#FFF" d="M13.0196 10.0185C13.0196 11.1345 12.4006 12.1005 11.4976 12.6225L12.4806 13.2655C13.4606 12.5155 14.1036 11.3455 14.1036 10.0185 14.1036 8.6635 13.4376 7.4685 12.4196 6.7205L11.4236 7.3745C12.3696 7.8835 13.0196 8.8725 13.0196 10.0185M7.539 13.2813L8.527 12.6353C7.609 12.1173 6.98 11.1443 6.98 10.0183 6.98 8.8973 7.604 7.9273 8.514 7.4073L7.529 6.7623C6.543 7.5133 5.896 8.6863 5.896 10.0183 5.896 11.3543 6.547 12.5323 7.539 13.2813"/>
    <path fill="#FFF" d="M15.2207 10.0185C15.2207 11.5675 14.5277 12.9465 13.4527 13.9035L14.4027 14.5255C15.5747 13.3795 16.3067 11.7845 16.3067 10.0185 16.3067 8.2245 15.5507 6.6085 14.3457 5.4585L13.3927 6.0825C14.5017 7.0405 15.2207 8.4405 15.2207 10.0185M5.6152 14.541L6.5662 13.918C5.4802 12.961 4.7792 11.576 4.7792 10.019 4.7792 8.465 5.4762 7.083 6.5542 6.126L5.6052 5.505C4.4282 6.65 3.6932 8.249 3.6932 10.019 3.6932 11.792 4.4332 13.395 5.6152 14.541"/>
  </g>
</svg>
