<svg xmlns="http://www.w3.org/2000/svg" width="20" height="20" viewBox="0 0 20 20">
  <polygon fill="#A8A8A8" fill-rule="evenodd" points="15.625 6.875 14.744 7.756 16.356 9.375 10.625 9.375 10.625 3.644 12.244 5.256 13.125 4.375 10 1.25 6.875 4.375 7.756 5.256 9.375 3.644 9.375 9.375 3.644 9.375 5.256 7.756 4.375 6.875 1.25 10 4.375 13.125 5.256 12.244 3.644 10.625 9.375 10.625 9.375 16.356 7.756 14.744 6.875 15.625 10 18.75 13.125 15.625 12.244 14.744 10.625 16.356 10.625 10.625 16.356 10.625 14.744 12.244 15.625 13.125 18.75 10"/>
</svg>
