<svg xmlns="http://www.w3.org/2000/svg" width="20" height="20" viewBox="0 0 20 20">
  <path fill="#161616" fill-rule="evenodd" d="M3.75,11.25 C4.44035594,11.25 5,10.6903559 5,10 C5,9.30964406 4.44035594,8.75 3.75,8.75 C3.05964406,8.75 2.5,9.30964406 2.5,10 C2.5,10.6903559 3.05964406,11.25 3.75,11.25 Z M10,11.25 C10.6903559,11.25 11.25,10.6903559 11.25,10 C11.25,9.30964406 10.6903559,8.75 10,8.75 C9.30964406,8.75 8.75,9.30964406 8.75,10 C8.75,10.6903559 9.30964406,11.25 10,11.25 Z M16.25,11.25 C16.9403559,11.25 17.5,10.6903559 17.5,10 C17.5,9.30964406 16.9403559,8.75 16.25,8.75 C15.5596441,8.75 15,9.30964406 15,10 C15,10.6903559 15.5596441,11.25 16.25,11.25 Z"/>
</svg>
