<svg xmlns="http://www.w3.org/2000/svg" width="20" height="20" viewBox="0 0 20 20">
  <path fill="#161616" fill-rule="evenodd" d="M16.25,18.125 L16.14375,18.125 C3.8625,17.41875 2.11875,7.05625 1.875,3.89375 C1.83533288,3.39713929 1.99493398,2.90515892 2.31857351,2.52640685 C2.64221305,2.14765479 3.10327996,1.91327369 3.6,1.87499941 L7.04375,1.87499941 C7.55600481,1.87450411 8.01671587,2.1865987 8.20625,2.6625 L9.15625,5 C9.34322694,5.4644642 9.23501491,5.99568691 8.88125,6.35 L7.55,7.69375 C7.97595447,10.1143428 9.86803804,12.0114186 12.2875,12.44375 L13.64375,11.1 C14.0034217,10.7501072 14.5374623,10.6492055 15,10.84375 L17.35625,11.7875 C17.8247902,11.9829394 18.1285907,12.442345 18.1250315,12.95 L18.1250315,16.25 C18.1250315,17.2855339 17.2855339,18.125 16.25,18.125 Z M3.75,3.125 C3.40482203,3.125 3.125,3.40482203 3.125,3.75 L3.125,3.8 C3.4125,7.5 5.25625,16.25 16.2125,16.875 C16.3783337,16.8852496 16.5414236,16.8290462 16.6657351,16.7188076 C16.7900466,16.6085691 16.8653474,16.4533696 16.875,16.2875 L16.875,12.95 L14.51875,12.00625 L12.725,13.7875 L12.425,13.75 C6.9875,13.06875 6.25,7.63125 6.25,7.575 L6.2125,7.275 L7.9875,5.48125 L7.05,3.125 L3.75,3.125 Z"/>
</svg>
