<svg xmlns="http://www.w3.org/2000/svg" width="20" height="20" viewBox="0 0 20 20">
  <path fill="#161616" fill-rule="evenodd" d="M17.5,5.625 L15.625,5.625 L15.625,1.875 L4.375,1.875 L4.375,5.625 L2.5,5.625 C1.80964406,5.625 1.25,6.18464406 1.25,6.875 L1.25,13.125 C1.25,13.8153559 1.80964406,14.375 2.5,14.375 L4.375,14.375 L4.375,18.125 L15.625,18.125 L15.625,14.375 L17.5,14.375 C18.1903559,14.375 18.75,13.8153559 18.75,13.125 L18.75,6.875 C18.75,6.18464406 18.1903559,5.625 17.5,5.625 Z M5.625,3.125 L14.375,3.125 L14.375,5.625 L5.625,5.625 L5.625,3.125 Z M14.375,16.875 L5.625,16.875 L5.625,10.625 L14.375,10.625 L14.375,16.875 Z M17.5,13.125 L15.625,13.125 L15.625,9.375 L4.375,9.375 L4.375,13.125 L2.5,13.125 L2.5,6.875 L17.5,6.875 L17.5,13.125 Z"/>
</svg>
