<svg xmlns="http://www.w3.org/2000/svg" width="20" height="20" viewBox="0 0 20 20">
  <g fill="none" fill-rule="evenodd">
    <rect width="20" height="20"/>
    <path fill="#0F62FE" d="M14.8125,5.8125 L10.4375,1.4375 C10.3125,1.3125 10.1875,1.25 10,1.25 L3.75,1.25 C3.0625,1.25 2.5,1.8125 2.5,2.5 L2.5,17.5 C2.5,18.1875 3.0625,18.75 3.75,18.75 L8.75,18.75 L8.75,17.5 L3.75,17.5 L3.75,2.5 L8.75,2.5 L8.75,6.25 C8.75,6.9375 9.3125,7.5 10,7.5 L13.75,7.5 L13.75,8.75 L15,8.75 L15,6.25 C15,6.0625 14.9375,5.9375 14.8125,5.8125 Z M10,2.75 L13.5,6.25 L10,6.25 L10,2.75 Z"/>
    <rect width="20" height="20"/>
    <path fill="#0F62FE" d="M18.5625,12.0625 L16.6875,10.1875 C16.4375,9.9375 16.0625,9.9375 15.8125,10.1875 L10,16 L10,18.75 L12.75,18.75 L18.5625,12.9375 C18.8125,12.6875 18.8125,12.3125 18.5625,12.0625 Z M12.25,17.5 L11.25,17.5 L11.25,16.5 L14.375,13.375 L15.375,14.375 L12.25,17.5 Z M16.25,13.5 L15.25,12.5 L16.25,11.5 L17.25,12.5 L16.25,13.5 Z"/>
  </g>
</svg>
