<svg xmlns="http://www.w3.org/2000/svg" width="20" height="20" viewBox="0 0 20 20">
  <g fill="none" fill-rule="evenodd">
    <path fill="#0F62FE" d="M0,10 C0,4.48631579 4.48631579,0 10,0 C15.5136842,0 20,4.48631579 20,10 C20,15.5136842 15.5136842,20 10,20 C4.48631579,20 0,15.5136842 0,10 Z"/>
    <path fill="#F4F4F4" d="M10,14.5327 C7.496,14.5327 5.467,12.5037 5.467,10.0007 C5.467,7.4967 7.496,5.4677 10,5.4677 C12.504,5.4677 14.533,7.4967 14.533,10.0007 C14.533,12.5037 12.504,14.5327 10,14.5327 M10,4.0427 C6.711,4.0427 4.043,6.7107 4.043,10.0007 C4.043,13.2907 6.711,15.9587 10,15.9587 C13.291,15.9587 15.959,13.2907 15.959,10.0007 C15.959,6.7107 13.291,4.0427 10,4.0427"/>
    <line x1="13.095" x2="7" y1="7" y2="13" stroke="#F4F4F4" stroke-linecap="square" stroke-width="2"/>
  </g>
</svg>
