<svg xmlns="http://www.w3.org/2000/svg" width="20" height="20" viewBox="0 0 20 20">
  <path fill="#525252" fill-rule="evenodd" d="M10,1.25 C7.67321483,1.25523924 5.58981373,2.69252702 4.75872283,4.86582972 C3.92763194,7.03913241 4.52041274,9.49981671 6.25,11.05625 L6.25,18.75 L10,16.25 L13.75,18.75 L13.75,11.05625 C15.4795873,9.49981671 16.0723681,7.03913241 15.2412772,4.86582972 C14.4101863,2.69252702 12.3267852,1.25523924 10,1.25 Z M12.5,16.4125 L10.69375,15.2125 L10,14.75 L9.30625,15.2125 L7.5,16.4125 L7.5,11.90625 C9.07227521,12.6995194 10.9277248,12.6995194 12.5,11.90625 L12.5,16.4125 Z M13.05625,10 C11.5659337,11.4549705 9.25652584,11.6576021 7.53560823,10.484391 C5.81469062,9.31117992 5.1594336,7.08743023 5.96921571,5.16851528 C6.77899782,3.24960033 8.82928538,2.16759045 10.87043,2.58196965 C12.9115747,2.99634885 14.3776147,4.79221945 14.3750035,6.875 C14.3735229,8.05161949 13.8981703,9.17804752 13.05625,10 L13.05625,10 Z"/>
</svg>
