<svg xmlns="http://www.w3.org/2000/svg" width="20" height="20" viewBox="0 0 20 20">
  <path fill="#161616" fill-rule="evenodd" d="M8.75,12.6125 L6.50625,10.36875 L5.625,11.25 L8.75,14.375 L14.375,8.75 L13.49375,7.8625 L8.75,12.6125 Z M15.625,3.125 L13.75,3.125 L13.75,2.5 C13.75,1.80964406 13.1903559,1.25 12.5,1.25 L7.5,1.25 C6.80964406,1.25 6.25,1.80964406 6.25,2.5 L6.25,3.125 L4.375,3.125 C3.68464406,3.125 3.125,3.68464406 3.125,4.375 L3.125,17.5 C3.125,18.1903559 3.68464406,18.75 4.375,18.75 L15.625,18.75 C16.3153559,18.75 16.875,18.1903559 16.875,17.5 L16.875,4.375 C16.875,3.68464406 16.3153559,3.125 15.625,3.125 Z M7.5,2.5 L12.5,2.5 L12.5,5 L7.5,5 L7.5,2.5 Z M15.625,17.5 L4.375,17.5 L4.375,4.375 L6.25,4.375 L6.25,6.25 L13.75,6.25 L13.75,4.375 L15.625,4.375 L15.625,17.5 Z"/>
</svg>
