<svg xmlns="http://www.w3.org/2000/svg" width="20" height="20" viewBox="0 0 20 20">
  <g fill="none" fill-rule="evenodd">
    <path fill="#0F62FE" d="M16.0625,5.8125 L11.6875,1.4375 C11.5625,1.3125 11.4375,1.25 11.25,1.25 L5,1.25 C4.3125,1.25 3.75,1.8125 3.75,2.5 L3.75,17.5 C3.75,18.1875 4.3125,18.75 5,18.75 L15,18.75 C15.6875,18.75 16.25,18.1875 16.25,17.5 L16.25,6.25 C16.25,6.0625 16.1875,5.9375 16.0625,5.8125 Z M11.25,2.75 L14.75,6.25 L11.25,6.25 L11.25,2.75 Z M15,17.5 L5,17.5 L5,2.5 L10,2.5 L10,6.25 C10,6.9375 10.5625,7.5 11.25,7.5 L15,7.5 L15,17.5 Z"/>
    <polygon fill="#0F62FE" points="11.75 9.875 10 11.625 8.25 9.875 7.375 10.75 9.125 12.5 7.375 14.25 8.25 15.125 10 13.375 11.75 15.125 12.625 14.25 10.875 12.5 12.625 10.75"/>
    <rect width="20" height="20"/>
  </g>
</svg>
