<svg xmlns="http://www.w3.org/2000/svg" width="20" height="20" viewBox="0 0 20 20">
  <path fill="#161616" fill-rule="evenodd" d="M17.5,2.5 L2.5,2.5 C1.80964406,2.5 1.25,3.05964406 1.25,3.75 L1.25,13.75 C1.25,14.4403559 1.80964406,15 2.5,15 L7.5,15 L7.5,17.5 L5,17.5 L5,18.75 L15,18.75 L15,17.5 L12.5,17.5 L12.5,15 L17.5,15 C18.1903559,15 18.75,14.4403559 18.75,13.75 L18.75,3.75 C18.75,3.05964406 18.1903559,2.5 17.5,2.5 Z M11.25,17.5 L8.75,17.5 L8.75,15 L11.25,15 L11.25,17.5 Z M17.5,13.75 L2.5,13.75 L2.5,3.75 L17.5,3.75 L17.5,13.75 Z"/>
</svg>
