<svg xmlns="http://www.w3.org/2000/svg" width="20" height="20" viewBox="0 0 20 20">
  <path fill="#161616" fill-rule="evenodd" d="M16.875,17.5000149 C16.7655148,17.5007561 16.6577518,17.4727378 16.5625,17.41875 L4.6875,10.54375 C4.49168097,10.4327742 4.37065733,10.2250793 4.37065733,10 C4.37065733,9.77492065 4.49168097,9.56722576 4.6875,9.45625 L16.5625,2.58125 C16.7558757,2.4696045 16.9941243,2.4696045 17.1875,2.58125 C17.3816464,2.6933381 17.50089,2.90082203 17.5000049,3.125 L17.5000049,16.875 C17.5000049,17.220178 17.220178,17.5000149 16.875,17.5000149 Z M6.25,10 L16.25,15.79375 L16.25,4.20625 L6.25,10 Z M1.25,2.5 L2.5,2.5 L2.5,17.5 L1.25,17.5 L1.25,2.5 Z"/>
</svg>
