<svg xmlns="http://www.w3.org/2000/svg" width="20" height="20" viewBox="0 0 20 20">
  <g fill="none" fill-rule="evenodd">
    <rect width="20" height="20"/>
    <path fill="#0F62FE" d="M16.0625,5.8125 L11.6875,1.4375 C11.5625,1.3125 11.4375,1.25 11.25,1.25 L5,1.25 C4.3125,1.25 3.75,1.8125 3.75,2.5 L3.75,13.75 L5,13.75 L5,2.5 L10,2.5 L10,6.25 C10,6.9375 10.5625,7.5 11.25,7.5 L15,7.5 L15,13.75 L16.25,13.75 L16.25,6.25 C16.25,6.0625 16.1875,5.9375 16.0625,5.8125 Z M11.25,6.25 L11.25,2.75 L14.75,6.25 L11.25,6.25 Z"/>
    <rect width="20" height="20"/>
    <rect width="20" height="20"/>
    <path fill="#0F62FE" d="M1.25,13.75 L1.25,17.5 C1.25,18.1875 1.8125,18.75 2.5,18.75 L17.5,18.75 C18.1875,18.75 18.75,18.1875 18.75,17.5 L18.75,13.75 L1.25,13.75 Z"/>
  </g>
</svg>
