<svg xmlns="http://www.w3.org/2000/svg" width="20" height="20" viewBox="0 0 20 20">
  <g fill="none" fill-rule="evenodd">
    <path fill="#198038" d="M20,10 C20,15.523 15.523,20 10,20 C4.477,20 0,15.523 0,10 C0,4.477 4.477,0 10,0 C15.523,0 20,4.477 20,10"/>
    <path fill="#FFF" d="M-3.10862447e-14,0.585786438 L1.14285714,0.585786438 L1.14285714,2.87150072 L8,2.87150072 L8,4.01435787 L-2.7533531e-14,4.01435787 L-3.10862447e-14,0.585786438 Z" transform="rotate(-45 18.718 -3.39)"/>
    <rect width="8" height="12" x="5" y="4" fill="#FFF"/>
    <path fill="#198038" d="M-6.92779167e-14,0.585786438 L1.14285714,0.585786438 L1.14285714,2.87150072 L4.38390398,2.87150072 L3.24240817,4.01435787 L-7.1942452e-14,4.01435787 L-6.92779167e-14,0.585786438 Z" transform="rotate(-45 18.718 -3.39)"/>
    <polygon fill="#198038" points="7 10 11 10 11 11 7 11" transform="matrix(1 0 0 -1 0 21)"/>
    <rect width="4" height="1" x="7" y="7" fill="#198038" transform="matrix(1 0 0 -1 0 15)"/>
  </g>
</svg>
